<svg xmlns="http://www.w3.org/2000/svg" viewBox="0 0 400 400" fill="none">
  <rect width="400" height="400" fill="#FAFAFA"/>
  <circle cx="200" cy="175" r="70" fill="#444" stroke="#555" stroke-width="3"/>
  <circle cx="200" cy="175" r="55" fill="#555"/>
  <circle cx="200" cy="175" r="20" fill="#333"/>
  <circle cx="200" cy="175" r="8" fill="#222"/>
  <path d="M200 120 L210 155 L200 145 L190 155 Z" fill="#777"/>
  <path d="M200 230 L190 195 L200 205 L210 195 Z" fill="#777"/>
  <path d="M145 175 L180 165 L170 175 L180 185 Z" fill="#777"/>
  <path d="M255 175 L220 185 L230 175 L220 165 Z" fill="#777"/>
  <rect x="170" y="250" width="60" height="40" rx="5" fill="#555" stroke="#666" stroke-width="2"/>
  <line x1="185" y1="290" x2="180" y2="330" stroke="#cc0000" stroke-width="2.5" stroke-linecap="round"/>
  <line x1="215" y1="290" x2="220" y2="330" stroke="#000" stroke-width="2.5" stroke-linecap="round"/>
  <text x="200" y="365" text-anchor="middle" font-family="Arial, sans-serif" font-size="14" fill="#666">Motor Turbina</text>
</svg>
