<?xml version="1.0" encoding="utf-8"?>
<!-- Generator: Adobe Illustrator 25.0.0, SVG Export Plug-In . SVG Version: 6.00 Build 0)  -->
<svg version="1.1" id="Capa_1" xmlns="http://www.w3.org/2000/svg" xmlns:xlink="http://www.w3.org/1999/xlink" x="0px" y="0px"
	 viewBox="0 0 792 266" style="enable-background:new 0 0 792 266;" xml:space="preserve">
<style type="text/css">
	.st0{fill:#003057;}
	.st1{fill:url(#SVGID_1_);}
	.st2{fill:url(#SVGID_2_);}
	.st3{fill:url(#SVGID_3_);}
	.st4{fill:#EA0029;}
</style>
<g>
	<g>
		<path class="st0" d="M676.91,147.71c0-5.57,3.3-7.33,7.6-7.41c4.77-0.12,8.83,0.35,11.33,1.18v4.93
			c-2.46-0.24-7.41-0.39-9.31-0.39c-2.23-0.03-3.32,0.1-3.32,2.27v0.95c0,1.77,0.58,2.32,2.71,2.32h4.07c5.65,0,6.88,4.67,6.88,7.76
			v1.6c0,6.72-3.98,8.03-7.79,8.03c-5.86,0-7.98-0.16-11.3-1.22v-4.93c1.54,0.15,6.29,0.42,9.86,0.42c1.63,0,2.93-0.34,2.93-2.04
			v-1.11c0-1.38-0.42-2.21-2.32-2.21h-3.93c-7.01,0-7.41-5.6-7.41-7.76V147.71z"/>
		<path class="st0" d="M700.31,148.25h5.29l1.02,1.98c1.37-1.13,3.31-2.21,5.67-2.21c4.82,0,6.64,3.69,6.64,10.33
			c0,6.15-1.04,10.6-6.64,10.6c-1.73,0-4.04-0.45-5.69-1.25v11.31h-6.28V148.25z M710.38,164.24c1.42,0,2.24-0.78,2.24-5.6
			c0-4.39-0.78-5.39-2.24-5.39c-1.65,0-2.96,0.37-3.77,1.08v9.23C707.57,164.05,708.93,164.24,710.38,164.24z"/>
		<path class="st0" d="M729.33,140.53h7.31l8.86,28.12h-6.58l-1.84-5.65h-8.48l-1.84,5.65h-6.61L729.33,140.53z M735.71,157.54
			l-2.66-8.92l-2.92,8.92H735.71z"/>
	</g>
	<g>
		<radialGradient id="SVGID_1_" cx="169.5041" cy="133.4533" r="69.31" gradientUnits="userSpaceOnUse">
			<stop  offset="0" style="stop-color:#7A8FA7"/>
			<stop  offset="0.7077" style="stop-color:#003057"/>
		</radialGradient>
		<path class="st1" d="M164.82,104.87c10.39-15.6,21.36-30.83,32.18-46.15c-12.82-10.08-28.28-16.94-45.18-19.35
			c-0.01,0.06-0.02,0.13-0.03,0.19c-1.65,10.97-3.18,21.96-4.95,32.92c-2.26,13.97-4.11,27.99-4.47,42.14
			c-0.02,0.61-0.02,1.21-0.03,1.82c-0.17,3.59-0.27,7.07-0.33,10.39c-0.01,2.24-0.01,4.44,0.01,6.63c-0.02,2.18-0.02,4.38-0.01,6.63
			c0.06,3.32,0.16,6.8,0.33,10.39c0.01,0.61,0.01,1.21,0.03,1.82c0.36,14.14,2.2,28.17,4.47,42.14c1.78,10.95,3.3,21.94,4.95,32.92
			c0.01,0.06,0.02,0.13,0.03,0.19c16.91-2.41,32.37-9.27,45.18-19.35c-10.83-15.32-21.79-30.54-32.18-46.15
			c-4.94-7.42-7.98-15.03-9.15-22.73c-0.23-1.97-0.35-3.93-0.37-5.87c0.02-1.93,0.14-3.88,0.37-5.85
			C156.84,119.9,159.88,112.28,164.82,104.87z"/>
		<radialGradient id="SVGID_2_" cx="107.0816" cy="133.4533" r="69.3098" gradientUnits="userSpaceOnUse">
			<stop  offset="0" style="stop-color:#7A8FA7"/>
			<stop  offset="0.7077" style="stop-color:#003057"/>
		</radialGradient>
		<path class="st2" d="M111.77,104.87c4.94,7.42,7.98,15.03,9.15,22.73c0.23,1.97,0.35,3.93,0.37,5.87
			c-0.02,1.93-0.14,3.88-0.37,5.85c-1.17,7.7-4.21,15.31-9.15,22.73c-10.39,15.6-21.36,30.83-32.18,46.15
			c12.82,10.08,28.28,16.94,45.18,19.35c0.01-0.06,0.02-0.13,0.03-0.19c1.66-10.97,3.18-21.96,4.95-32.92
			c2.26-13.97,4.11-27.99,4.47-42.14c0.02-0.61,0.01-1.21,0.03-1.82c0.17-3.59,0.28-7.07,0.33-10.39c0.01-2.24,0.01-4.44-0.01-6.63
			c0.02-2.18,0.02-4.38,0.01-6.63c-0.06-3.32-0.16-6.8-0.33-10.39c-0.01-0.61-0.01-1.21-0.03-1.82c-0.36-14.14-2.2-28.17-4.47-42.14
			c-1.77-10.95-3.3-21.94-4.95-32.92c-0.01-0.06-0.02-0.13-0.03-0.19c-16.9,2.41-32.37,9.27-45.18,19.35
			C90.41,74.04,101.37,89.27,111.77,104.87z"/>
		
			<radialGradient id="SVGID_3_" cx="93.6096" cy="133.6836" r="45.0827" fx="75.6869" fy="133.4882" gradientUnits="userSpaceOnUse">
			<stop  offset="0" style="stop-color:#FF9082"/>
			<stop  offset="0.248" style="stop-color:#F7575F"/>
			<stop  offset="0.5444" style="stop-color:#ED1939"/>
			<stop  offset="0.6851" style="stop-color:#EA0029"/>
			<stop  offset="1" style="stop-color:#EA0029"/>
		</radialGradient>
		<path class="st3" d="M101.54,130.7c1.25,0.29,2.18,1.41,2.18,2.75c0,1.34-0.93,2.46-2.18,2.75L44.5,148.88
			c2.26,13.84,7.5,26.69,15.05,37.84l48.58-39.69c4.09-3.34,6.44-8.29,6.45-13.57c0-5.28-2.35-10.23-6.44-13.58l-48.59-39.7
			C52,91.34,46.76,104.18,44.5,118.03L101.54,130.7z"/>
	</g>
	<g>
		<path class="st4" d="M197.56,98.69h30.96c11.61,0,20.14,5.1,20.14,22.15s-6.46,19.3-10.8,20.83l12.74,27.13H232.8l-10.44-25.76
			l-9.1-1.34v27.1h-15.71V98.69z M226.72,129.63c4.77,0,6.13-1.87,6.13-8.79c0-6.3-1.91-8.5-6.13-8.5h-13.38v17.29H226.72z"/>
		<path class="st4" d="M258.28,114.02c0-13.17,9.69-15.4,16.38-15.32c0,0,22.65,0.38,31.05,1.53v13.1h-26.74
			c-4.98,0-4.98,2.78-4.98,5.36v7.95l27.18,1.03v12.98l-27.18,0.89v7.95c0.03,5.08,3.16,4.98,5.94,4.98h25.79v13
			c-7.4,1.01-30.1,1.63-30.1,1.63c-6.23,0.24-17.33-1.1-17.33-14.8V114.02z"/>
		<path class="st0" d="M337.26,97.93c11.59,0,16.95,0.86,24.8,3.47v12.26c-0.1,0-10.89-1.46-20.49-1.46
			c-9.03,0-12.62,1.08-12.62,21.55c0,15.71,2.25,21.36,12.69,21.36c10.05,0,20.42-0.82,20.42-0.82v12.26
			c-6.13,2.18-12.93,3.04-24.8,2.83c-17.72-0.22-24.01-13-24.01-35.82C313.25,111.14,318.21,97.93,337.26,97.93z"/>
		<path class="st0" d="M391.89,98.69h18.22l22.1,70.1h-16.4l-4.6-14.08h-21.14l-4.6,14.08H369L391.89,98.69z M407.78,141.1
			l-6.63-22.24l-7.28,22.24H407.78z"/>
		<path class="st0" d="M445.38,98.69h21.84l9.12,44.1l9.26-44.1h21.81l7.01,70.1h-15.49l-4.67-42.98l-8.88,42.98h-17.76l-9.24-42.98
			l-4.26,42.98h-15.49L445.38,98.69z"/>
		<path class="st0" d="M524.9,98.69h29.59c14.7,0,20.35,8.05,20.35,18.92c0,6.22-3.02,13.84-9.89,14.8
			c6.44,1.1,11.28,7.23,11.28,15.42c0,14.22-6.63,20.97-21.38,20.97H524.9V98.69z M553.41,125.7c3.95,0,6.01-2.61,6.01-6.58
			c0-5.48-3.18-6.87-6.01-6.87h-12.79v13.45H553.41z M554.13,155.25c3.88,0,6.39-2.18,6.39-8.19c0-4.43-1.58-8.52-6.39-8.52h-13.5
			v16.71H554.13z"/>
		<path class="st0" d="M584.95,98.69h15.71v70.1h-15.71V98.69z"/>
		<path class="st0" d="M639.11,98.22c16.57,0,28.51,3.16,28.51,36.01c0,30.93-11.28,34.96-28.51,34.96
			c-17.24,0-28.56-3.06-28.56-34.96C610.55,101.38,623.02,98.22,639.11,98.22z M639.11,154.91c9.91,0,12.81-3.59,12.81-20.69
			c0-19.37-3.02-21.74-12.81-21.74c-9.51,0-12.86,1.72-12.86,21.74C626.26,151.37,628.29,154.91,639.11,154.91z"/>
	</g>
	<g>
		<path class="st0" d="M320.82,54.33c2.23,0,6.75,0.44,9.96,1.18v2.7c0,0-5.44-0.26-9.25-0.26c-2.62,0-4.25,0.39-4.25,8.1
			c0,6.35,1.17,7.83,4.25,7.83c3.94,0,9.55-0.45,9.55-0.45v2.77c-3.43,1.18-6.7,1.26-10.25,1.3c-4.24,0-7.49-1.79-7.49-11.6
			C313.33,56.11,316.45,54.33,320.82,54.33z"/>
		<path class="st0" d="M346.05,54.33c7.71,0,10.12,2.87,10.12,11.9c0,8.43-2.37,11.26-10.12,11.26c-7.72,0-10.12-3.13-10.12-11.26
			C335.94,56.94,338.54,54.33,346.05,54.33z M346.05,73.88c4.28,0,6.18-0.56,6.18-7.64c0-7.65-1.56-8.29-6.18-8.29
			c-4.46,0-6.18,0.6-6.18,8.29C339.87,73.35,341.97,73.88,346.05,73.88z"/>
		<path class="st0" d="M362.67,54.54h2.93l1.01,2.66c2.45-1.49,4.42-2.94,7.82-2.94c2.81,0,5.21,1.2,6.18,3.23
			c2.18-1.74,5.16-3.23,8.89-3.23c4.23,0,6.96,3.08,6.96,7.51v15.5h-3.94V61.75c0-2.42-1.45-3.86-3.49-3.86
			c-3.09,0-5.13,0.52-7.62,2.23c0,0.05,0.01,1.53,0.01,1.59v15.58h-3.94V61.75c0-2.42-1.49-3.86-3.52-3.86
			c-3.04,0-4.47,0.76-7.35,2.28v17.12h-3.94V54.54z"/>
		<path class="st0" d="M412.07,54.37c5.69,0,8.95,0.58,8.95,8.11c0,3.5-1.88,5.35-6,5.35h-8.95c0,5.01,1.14,6.04,4.45,6.04
			c3.81,0,6.85,0.04,10.06-0.43v2.85c-3.4,1.04-7.41,1.2-10.96,1.2c-5.78,0-7.49-2.94-7.49-11.69
			C402.14,55.76,405,54.37,412.07,54.37z M414.6,64.39c1.71,0,2.48-0.67,2.48-1.99c0-4.05-0.73-4.48-4.88-4.48
			c-4.38,0-6.13,0.08-6.12,6.47H414.6z"/>
		<path class="st0" d="M427.16,54.54h3l0.94,2.87c2.33-1.5,4.62-3.12,7.94-3.12c1.17,0,2.46,0.07,3,0.32v3.85
			c-0.54-0.11-1.95-0.22-3.2-0.22c-3.17,0-4.94,0.76-7.74,2.5v16.53h-3.94V54.54z"/>
		<path class="st0" d="M453.65,54.33c2.23,0,6.75,0.44,9.96,1.18v2.7c0,0-5.44-0.26-9.25-0.26c-2.62,0-4.25,0.39-4.25,8.1
			c0,6.35,1.17,7.83,4.25,7.83c3.94,0,9.55-0.45,9.55-0.45v2.77c-3.43,1.18-6.7,1.26-10.25,1.3c-4.24,0-7.49-1.79-7.49-11.6
			C446.16,56.11,449.28,54.33,453.65,54.33z"/>
		<path class="st0" d="M469.62,48.23c0-0.64,0.34-1.07,1.03-1.07h2.78c0.64,0,0.98,0.47,0.98,1.07v2.72c0,0.64-0.38,0.98-0.98,0.98
			h-2.78c-0.6,0-1.03-0.39-1.03-0.98V48.23z M469.99,54.54h3.94v22.74h-3.94V54.54z"/>
		<path class="st0" d="M480.14,69.29c0-3.39,2.04-5.84,5.96-5.84c0,0,8.73,0.04,8.73,0c0,0,0.04-2.44,0-2.48
			c0-2.56-1.31-3.32-3.38-3.32c-2.78,0-7.05,0.25-10.58,0.51v-2.69c3.03-0.94,6.65-1.31,10.89-1.35c3.92-0.04,7.01,1.83,7.01,6.79
			v16.38h-3l-0.94-2.68c-0.13,0.13-5.02,2.95-8.8,2.93c-3.47-0.03-5.89-2.31-5.89-5.76V69.29z M486.5,73.92
			c3.17,0,8.34-2.07,8.34-2.07v-5.59l-8.41,0.61c-1.77,0.17-2.34,1.39-2.34,2.65v1.86C484.08,73.4,485.14,73.92,486.5,73.92z"/>
		<path class="st0" d="M505.31,43.75h3.94v25.18c0,3.61,0.93,4.43,2.31,4.8c0,0,3.25,0.9,3.55,0.9v2.65h-4.09
			c-3.41,0-5.72-2.06-5.72-8.09V43.75z"/>
		<path class="st0" d="M520.02,48.23c0-0.64,0.34-1.07,1.03-1.07h2.78c0.64,0,0.98,0.47,0.98,1.07v2.72c0,0.64-0.38,0.98-0.98,0.98
			h-2.78c-0.6,0-1.03-0.39-1.03-0.98V48.23z M520.39,54.54h3.94v22.74h-3.94V54.54z"/>
		<path class="st0" d="M530.14,54.54h17.34v3.68l-11.5,15.33h11.5c0.04,0.04,0,3.68,0,3.68h-16.7v-3.67l11.78-15.34h-12.42V54.54z"
			/>
		<path class="st0" d="M552.38,69.29c0-3.39,2.04-5.84,5.96-5.84c0,0,8.73,0.04,8.73,0c0,0,0.04-2.44,0-2.48
			c0-2.56-1.31-3.32-3.38-3.32c-2.78,0-7.05,0.25-10.58,0.51v-2.69c3.03-0.94,6.65-1.31,10.89-1.35c3.92-0.04,7.01,1.83,7.01,6.79
			v16.38h-3l-0.94-2.68c-0.13,0.13-5.02,2.95-8.8,2.93c-3.47-0.03-5.89-2.31-5.89-5.76V69.29z M558.74,73.92
			c3.17,0,8.34-2.07,8.34-2.07v-5.59l-8.41,0.61c-1.77,0.17-2.34,1.39-2.34,2.65v1.86C556.32,73.4,557.38,73.92,558.74,73.92z"/>
		<path class="st0" d="M584.62,54.2c1.93,0,5.42,0.58,7.98,1.65V43.67h3.9v33.61h-3l-0.91-2.46c-1.2,0.9-5.12,2.72-7.97,2.72
			c-6.04,0-7.47-5.79-7.47-11.52C577.15,59.8,578.2,54.2,584.62,54.2z M585.04,73.84c3.07,0,5.52-0.91,7.55-1.82V58.83
			c-2.58-0.73-4.59-1.04-7.55-1.04c-2.51,0-3.96,1.51-3.96,8.17C581.09,71.39,582.49,73.84,585.04,73.84z"/>
		<path class="st0" d="M613.13,54.33c7.71,0,10.12,2.87,10.12,11.9c0,8.43-2.37,11.26-10.12,11.26c-7.72,0-10.12-3.13-10.12-11.26
			C603.01,56.94,605.61,54.33,613.13,54.33z M613.13,73.88c4.28,0,6.18-0.56,6.18-7.64c0-7.65-1.56-8.29-6.18-8.29
			c-4.46,0-6.18,0.6-6.18,8.29C606.95,73.35,609.05,73.88,613.13,73.88z"/>
		<path class="st0" d="M629.75,54.54h3l0.94,2.87c2.33-1.5,4.62-3.12,7.94-3.12c1.17,0,2.46,0.07,3,0.32v3.85
			c-0.54-0.11-1.95-0.22-3.2-0.22c-3.17,0-4.94,0.76-7.74,2.5v16.53h-3.94V54.54z"/>
		<path class="st0" d="M649.2,69.29c0-3.39,2.04-5.84,5.96-5.84c0,0,8.73,0.04,8.73,0c0,0,0.04-2.44,0-2.48
			c0-2.56-1.31-3.32-3.38-3.32c-2.78,0-7.05,0.25-10.58,0.51v-2.69c3.03-0.94,6.65-1.31,10.89-1.35c3.92-0.04,7.01,1.83,7.01,6.79
			v16.38h-3l-0.94-2.68c-0.13,0.13-5.02,2.95-8.8,2.93c-3.47-0.03-5.89-2.31-5.89-5.76V69.29z M655.55,73.92
			c3.17,0,8.34-2.07,8.34-2.07v-5.59l-8.41,0.61c-1.77,0.17-2.34,1.39-2.34,2.65v1.86C653.14,73.4,654.2,73.92,655.55,73.92z"/>
	</g>
</g>
</svg>
